<svg xmlns="http://www.w3.org/2000/svg" width="200" height="40" viewBox="0 0 200 40" class="UserLogo variant-- "><title>Instacart logo</title><g fill="none" fill-rule="evenodd"><path fill="var(--userLogoColor, #FF8200)" fill-rule="nonzero" d="M46.7 16.23c1.64 1.66 2.99 4.38 2.22 6-2.07 4.3-17.46 11.87-18.77 10.56-1.3-1.3 6.26-16.72 10.57-18.79 1.6-.77 4.32.58 5.98 2.23z"></path><path fill="var(--userLogoColor, #43B02A)" fill-rule="nonzero" d="M54.85 14.41c-.27-.99-.95-2-1.97-2.11-1.87-.22-4.82 3.1-4.61 3.88.2.78 4.37 2.17 5.93 1.05.8-.58.92-1.82.65-2.82zm-5.8-9.17c1.4.38 2.8 1.34 2.97 2.77.3 2.62-4.33 6.76-5.43 6.47-1.1-.3-3.04-6.15-1.48-8.33.81-1.13 2.56-1.28 3.95-.91zm41.43 15.54l-1.37-.2c-1.31-.2-2.07-.63-2.07-1.4 0-.89.98-1.44 2.45-1.44 1.03 0 1.87.39 2.68.8l.16.08c.18.1.38.14.6.14.47 0 .9-.26 1.14-.68l.11-.2a1.34 1.34 0 0 0-.57-1.85 8.8 8.8 0 0 0-4.12-1.12c-3.5 0-5.77 1.7-5.77 4.42 0 2.24 1.61 3.64 4.65 4.06l1.4.18c1.46.2 2.17.64 2.17 1.33 0 .64-.34 1.48-2.61 1.48a6.7 6.7 0 0 1-3.56-.97 1.33 1.33 0 0 0-1.81.43l-.08.12c-.2.31-.25.7-.16 1.05.09.36.31.65.63.83a11.2 11.2 0 0 0 4.98 1.37c3.65 0 5.91-1.6 5.91-4.42 0-2.26-1.6-3.55-4.76-4zm42.49 4.93a1.4 1.4 0 0 0-1.8-.25c-.74.48-1.56.73-2.36.73-2.19 0-3.78-1.74-3.78-4.13 0-2.4 1.59-4.13 3.78-4.13.85 0 1.6.23 2.31.7.55.37 1.34.28 1.79-.2l.11-.13a1.53 1.53 0 0 0-.25-2.3 6.96 6.96 0 0 0-3.87-1.1c-4.21 0-7.16 2.94-7.16 7.16 0 4.22 2.95 7.16 7.16 7.16 1.46 0 2.8-.38 3.89-1.11a1.52 1.52 0 0 0 .28-2.29l-.1-.11zM64.78 10.05c-1.1 0-1.95.87-1.95 1.98 0 1.12.84 1.96 1.95 1.96 1.11 0 1.98-.86 1.98-1.96s-.87-1.98-1.98-1.98zm.6 4.96h-1.16c-.57 0-1.02.46-1.02 1.03v11.81c0 .57.46 1.03 1.02 1.03h1.15c.57 0 1.03-.46 1.03-1.03V16.04c0-.57-.46-1.03-1.03-1.03zm37.87 11.12a2.8 2.8 0 0 1-2.8-2.8V18h2.8c.57 0 1.03-.46 1.03-1.03v-.93c0-.57-.46-1.03-1.03-1.03h-2.8v-3.07c0-.57-.46-1.03-1.03-1.03h-1.21c-.57 0-1.03.46-1.03 1.03v11.2c0 3.22 2.45 6.07 5.83 6.07a1.26 1.26 0 0 0 1.27-1.27v-.79c0-.57-.47-1.02-1.03-1.02zM75.29 14.9a6.22 6.22 0 0 0-6.38 6.08v6.87c0 .57.46 1.03 1.03 1.03h1.16c.57 0 1.03-.46 1.03-1.03V21.5c0-2.13 1.28-3.54 3.16-3.54 1.88 0 3.17 1.41 3.17 3.54v6.35c0 .57.46 1.03 1.02 1.03h1.17c.56 0 1.02-.46 1.02-1.03v-6.87c0-2.8-2.28-6.08-6.38-6.08zm84.24.14a14.4 14.4 0 0 0-2.14-.14h-.15a6.14 6.14 0 0 0-6.1 6.15v6.8c0 .57.46 1.03 1.03 1.03h1.16c.57 0 1.03-.46 1.03-1.03v-6.68c0-1.94 1.38-3.2 3.08-3.2.3 0 .64.03.97.1a1.4 1.4 0 0 0 1.63-1.05l.2-.84a.93.93 0 0 0-.71-1.14zm8.56 2.96c.56 0 1.02-.46 1.02-1.03v-.93c0-.57-.46-1.03-1.02-1.03h-2.81v-3.07c0-.57-.46-1.03-1.03-1.03h-1.21c-.57 0-1.03.46-1.03 1.03v11.2c0 3.22 2.45 6.07 5.83 6.07a1.26 1.26 0 0 0 1.27-1.27v-.79c0-.57-.47-1.02-1.03-1.02a2.8 2.8 0 0 1-2.8-2.8V18h2.8zm-22.27-2a6.96 6.96 0 0 0-3.88-1.1H141.8c-1.45 0-2.79.38-3.87 1.1a6.92 6.92 0 0 0-3.13 6.06c0 2.8 1.3 5.05 3.4 6.23a6.7 6.7 0 0 0 3.42.93c2.3 0 3.69-1.3 4.12-1.87v.5c0 .56.46 1.02 1.03 1.02h1.16c.57 0 1.03-.46 1.03-1.03v-5.78a6.92 6.92 0 0 0-3.13-6.06zm-2.67 9.97a4.16 4.16 0 0 1-1.21.22h-.14a4.09 4.09 0 0 1-1.22-.22c-1.5-.53-2.5-2.01-2.5-3.9 0-2.25 1.39-3.91 3.37-4.12h.03a3.98 3.98 0 0 1 .34-.02h.09a4.1 4.1 0 0 1 .35.02h.03c1.98.2 3.37 1.87 3.37 4.11 0 1.9-1 3.38-2.5 3.91zM116.7 16a6.96 6.96 0 0 0-3.87-1.1H112.67c-1.45 0-2.8.38-3.87 1.1a6.92 6.92 0 0 0-3.14 6.06c0 2.8 1.3 5.05 3.42 6.23a6.7 6.7 0 0 0 3.4.93c2.3 0 3.7-1.3 4.13-1.87v.5c0 .56.46 1.02 1.02 1.02h1.17c.57 0 1.02-.46 1.02-1.03v-5.78A6.92 6.92 0 0 0 116.7 16zm-2.66 9.97a4.16 4.16 0 0 1-1.22.22h-.14a4.09 4.09 0 0 1-1.21-.22c-1.51-.53-2.51-2.01-2.51-3.9 0-2.25 1.4-3.91 3.37-4.12h.03a3.98 3.98 0 0 1 .35-.02h.09a4.1 4.1 0 0 1 .34.02h.03c1.98.2 3.38 1.87 3.38 4.11 0 1.9-1 3.38-2.51 3.91z"></path></g></svg>